<?xml version="1.0" standalone="no"?>
<!DOCTYPE svg PUBLIC "-//W3C//DTD SVG 20010904//EN"
 "http://www.w3.org/TR/2001/REC-SVG-20010904/DTD/svg10.dtd">
<svg version="1.0" xmlns="http://www.w3.org/2000/svg"
 width="3117.000000pt" height="1460.000000pt" viewBox="0 0 3117.000000 1460.000000"
 preserveAspectRatio="xMidYMid meet">

<g transform="translate(0.000000,1460.000000) scale(0.100000,-0.100000)"
fill="#000000" stroke="none">
<path d="M4388 14092 c-38 -1 -68 -7 -68 -12 0 -6 -8 -10 -18 -10 -25 0 -109
-32 -165 -63 -26 -15 -77 -57 -115 -95 -78 -80 -78 -80 -116 -152 -16 -30 -35
-66 -42 -80 -8 -14 -14 -34 -14 -45 0 -12 -4 -25 -9 -30 -19 -20 -31 -227 -18
-290 4 -16 10 -46 14 -65 3 -19 7 -37 8 -40 1 -3 5 -18 10 -35 4 -16 11 -32
15 -35 3 -3 14 -21 23 -42 27 -57 103 -153 161 -203 56 -48 155 -103 221 -123
99 -31 293 -31 390 0 54 17 183 86 211 112 94 88 123 122 149 173 16 32 32 60
36 63 4 3 15 30 24 60 9 30 21 63 26 73 15 27 15 288 0 314 -6 12 -11 33 -11
46 0 48 -109 239 -164 286 -10 9 -39 35 -65 59 -25 23 -51 42 -58 42 -6 0 -13
4 -15 8 -5 13 -124 62 -151 62 -14 0 -27 4 -29 9 -4 10 -136 18 -230 13z"/>
<path d="M12245 13433 c-81 -10 -244 -49 -300 -73 -332 -137 -540 -355 -615
-645 -28 -104 -31 -316 -6 -419 64 -267 253 -483 550 -629 45 -21 149 -67 231
-102 487 -203 541 -228 608 -286 69 -59 90 -107 91 -200 0 -66 -4 -83 -31
-130 -63 -113 -169 -160 -378 -167 -115 -3 -142 -1 -236 22 -59 15 -133 37
-165 50 -100 41 -270 142 -367 220 -27 22 -42 27 -52 21 -7 -6 -69 -77 -136
-160 -68 -82 -154 -186 -191 -230 -38 -44 -68 -83 -68 -87 0 -14 181 -155 261
-203 123 -72 200 -109 329 -153 471 -163 988 -122 1345 106 38 24 109 84 156
131 123 123 188 230 235 388 24 79 27 104 28 248 1 228 -30 349 -125 490 -118
176 -293 296 -629 429 -184 73 -477 199 -555 238 -80 41 -151 102 -177 151
-30 59 -22 175 15 234 92 145 359 191 632 111 87 -25 221 -92 309 -153 36 -26
73 -45 81 -43 18 3 355 416 355 434 0 16 -128 124 -210 178 -173 115 -397 197
-613 226 -73 9 -305 12 -372 3z"/>
<path d="M1311 13376 c-8 -10 -10 -431 -9 -1582 l3 -1569 530 -3 c627 -4 712
3 969 75 496 140 824 508 940 1053 20 93 46 357 46 460 0 112 -27 371 -49 480
-28 136 -64 239 -126 365 -219 441 -639 684 -1253 725 -85 5 -353 10 -597 10
-360 0 -445 -3 -454 -14z m1101 -590 c314 -61 492 -221 587 -531 35 -113 51
-247 52 -430 0 -287 -26 -424 -116 -610 -57 -118 -116 -193 -200 -255 -149
-109 -290 -150 -547 -158 l-168 -5 0 1000 c0 550 3 1003 8 1008 11 12 297 -2
384 -19z"/>
<path d="M5375 13378 c-3 -7 -4 -719 -3 -1583 l3 -1570 335 0 335 0 0 700 c0
720 -2 759 -46 1195 -29 276 -34 360 -22 360 6 0 31 -46 56 -102 207 -465 241
-539 281 -618 36 -70 552 -1057 709 -1355 l95 -180 366 -3 366 -2 -2 1582 -3
1583 -335 0 -335 0 0 -675 c0 -675 4 -775 41 -1130 17 -166 44 -441 44 -452 0
-5 -5 -8 -10 -8 -6 0 -25 30 -42 68 -58 128 -160 357 -210 472 -27 63 -73 160
-102 215 -30 55 -85 161 -124 235 -196 378 -320 614 -366 700 -28 52 -107 203
-176 335 l-125 240 -363 3 c-285 2 -364 0 -367 -10z"/>
<path d="M9194 13382 c-11 -7 -35 -81 -155 -467 -28 -88 -75 -239 -105 -335
-104 -327 -172 -545 -203 -645 -17 -55 -61 -199 -99 -320 -38 -121 -99 -314
-135 -430 -106 -339 -175 -559 -232 -740 -30 -93 -57 -182 -61 -198 l-6 -27
363 2 362 3 28 100 c15 55 50 192 79 305 28 113 55 216 60 230 4 14 13 44 19
68 l12 42 479 0 c342 0 481 -3 486 -11 4 -6 28 -95 54 -198 41 -158 90 -348
131 -503 l10 -38 374 0 c295 0 375 3 375 13 0 7 -11 48 -25 92 -14 44 -42 132
-61 195 -20 63 -62 198 -94 300 -110 348 -172 545 -201 645 -17 55 -41 132
-54 170 -13 39 -40 124 -60 190 -20 66 -61 199 -92 295 -64 203 -95 303 -153
490 -49 159 -141 450 -202 640 l-43 135 -420 2 c-231 2 -425 -1 -431 -5z m438
-629 c10 -38 34 -135 53 -218 50 -207 136 -546 190 -750 26 -93 49 -189 52
-212 l6 -43 -326 0 c-185 0 -328 4 -331 9 -5 8 46 218 98 401 29 104 104 411
171 710 20 85 38 163 41 174 9 29 26 4 46 -71z"/>
<path d="M4216 12524 c-3 -9 -6 -525 -6 -1149 0 -948 2 -1134 14 -1144 9 -8
86 -11 257 -9 l244 3 3 1158 2 1157 -254 0 c-222 0 -255 -2 -260 -16z"/>
<path d="M19098 10528 c-9 -7 -18 -31 -21 -53 -5 -37 -32 -239 -41 -310 -2
-16 -7 -61 -11 -99 -4 -38 -8 -79 -10 -90 -4 -24 -18 -173 -19 -198 -1 -9 -4
-20 -8 -24 -5 -4 -8 -33 -8 -65 0 -32 -4 -61 -10 -64 -5 -3 -10 -23 -10 -43
-1 -20 -6 -75 -13 -122 l-13 -85 -54 -7 c-117 -16 -343 -36 -517 -45 -71 -4
-85 -8 -98 -26 -13 -18 -15 -89 -15 -494 0 -301 4 -474 10 -478 5 -3 143 -6
305 -5 l295 0 1 -917 c1 -505 3 -929 4 -943 2 -14 6 -74 10 -135 10 -181 35
-375 47 -375 4 0 8 -11 8 -25 0 -26 47 -181 60 -200 4 -5 11 -26 15 -45 4 -19
11 -39 15 -45 4 -5 14 -29 23 -52 9 -23 37 -74 62 -112 25 -39 45 -75 45 -80
0 -5 3 -11 8 -13 4 -1 20 -22 36 -46 57 -84 246 -245 379 -324 25 -15 125 -57
172 -73 54 -18 91 -33 115 -45 9 -4 40 -11 70 -15 30 -4 60 -11 65 -15 6 -4
44 -11 85 -15 41 -3 89 -9 105 -12 32 -5 456 -5 490 1 11 1 56 7 100 11 82 9
93 11 98 15 1 1 34 8 72 15 79 15 117 24 229 54 44 12 89 21 102 21 13 0 26 5
29 10 3 6 19 10 35 10 41 0 60 30 49 78 -4 20 -11 51 -14 67 -4 17 -10 39 -14
50 -11 25 -38 159 -61 295 -5 30 -17 87 -25 125 -8 39 -18 87 -21 108 -4 20
-11 37 -15 37 -5 0 -9 15 -9 33 0 19 -7 56 -15 83 -8 27 -15 58 -15 69 0 11
-7 29 -16 40 -14 19 -16 19 -63 2 -27 -9 -56 -17 -65 -17 -9 0 -16 -3 -16 -8
0 -27 -325 -53 -415 -32 -22 5 -53 12 -70 16 -16 4 -32 10 -35 13 -3 3 -23 15
-45 26 -22 11 -46 26 -54 33 -8 7 -24 20 -36 28 -28 18 -115 146 -115 168 0 9
-4 16 -9 16 -8 0 -20 51 -39 165 -4 22 -7 470 -7 995 l0 955 525 5 525 5 3
509 c1 367 -1 513 -9 522 -9 12 -104 14 -530 14 l-519 0 0 569 c0 313 -3 576
-6 585 -6 14 -63 16 -548 16 -419 0 -546 -3 -558 -12z"/>
<path d="M3606 9481 c-3 -4 -45 -11 -93 -15 -48 -4 -92 -11 -98 -15 -5 -5 -23
-11 -40 -14 -87 -17 -185 -48 -185 -59 0 -5 -7 -8 -16 -8 -9 0 -30 -7 -47 -16
-18 -9 -40 -21 -49 -25 -10 -5 -26 -13 -35 -19 -10 -5 -39 -18 -64 -29 -26
-11 -77 -41 -114 -66 -37 -25 -70 -45 -72 -45 -6 0 -103 -70 -121 -87 -7 -7
-17 -13 -21 -13 -5 0 -25 -16 -45 -35 -21 -19 -41 -35 -45 -35 -4 0 -16 -9
-26 -20 -26 -29 -35 -25 -35 15 0 19 -4 35 -9 35 -4 0 -11 27 -14 60 -4 34
-11 69 -17 80 -5 10 -10 34 -11 52 0 40 -21 138 -32 156 -6 9 -129 12 -558 12
l-549 0 2 -3047 3 -3048 662 -3 c594 -2 663 -1 677 14 15 14 16 82 12 682 -5
698 -10 894 -25 927 -5 11 -12 89 -15 173 l-5 153 41 -30 c22 -16 54 -43 72
-59 66 -60 348 -222 386 -222 12 0 67 -22 103 -41 9 -5 38 -12 62 -16 25 -3
48 -10 51 -14 3 -5 22 -9 43 -9 20 0 43 -6 49 -13 18 -17 446 -17 464 1 6 6
29 12 49 12 21 0 40 4 43 9 3 4 28 11 55 15 28 4 53 11 56 16 3 6 16 10 29 10
12 0 26 4 32 9 5 4 34 16 64 25 72 22 149 59 216 101 30 19 57 35 60 35 11 0
134 84 134 92 0 4 6 8 14 8 8 0 16 3 18 8 2 4 26 25 53 47 76 60 241 232 283
295 20 30 40 57 45 58 4 2 7 10 7 17 0 7 4 15 9 17 11 4 91 119 91 131 0 5 8
21 19 35 36 52 118 218 137 280 10 34 22 62 27 62 4 0 7 6 7 14 0 7 7 27 15
42 8 16 15 37 15 46 0 9 4 20 10 23 6 3 10 16 10 29 0 12 4 26 9 32 10 10 30
93 37 159 3 22 9 49 14 60 5 11 11 34 14 50 2 17 9 50 15 75 6 25 10 70 11
101 0 30 4 59 9 65 16 16 24 153 24 419 -1 267 -8 405 -23 440 -5 11 -11 56
-15 99 -3 44 -10 87 -16 97 -5 10 -9 33 -9 51 0 19 -4 38 -9 43 -5 6 -11 28
-14 50 -11 83 -28 160 -38 170 -5 5 -9 19 -9 32 0 13 -4 23 -10 23 -5 0 -10 9
-10 20 0 20 -29 101 -39 110 -4 3 -15 32 -26 65 -25 75 -57 144 -101 212 -19
29 -34 56 -34 59 0 10 -73 119 -119 178 -62 81 -243 266 -258 266 -7 0 -13 5
-13 10 0 6 -7 10 -15 10 -8 0 -15 5 -15 10 0 6 -7 13 -16 17 -9 3 -28 17 -42
29 -14 13 -31 24 -38 24 -8 0 -14 3 -14 8 0 4 -29 21 -65 37 -36 17 -65 33
-65 38 0 4 -4 7 -10 7 -5 0 -33 11 -62 24 -69 32 -130 52 -198 66 -30 7 -62
16 -71 20 -9 5 -57 11 -108 15 -50 4 -94 12 -97 16 -7 12 -351 12 -358 0z
m-71 -1121 c3 -5 18 -10 33 -10 79 -1 198 -66 291 -159 61 -63 84 -97 148
-226 39 -78 42 -86 54 -145 6 -30 15 -73 21 -95 5 -22 14 -83 19 -135 6 -52
15 -117 20 -145 20 -97 -4 -660 -31 -720 -5 -11 -11 -33 -13 -50 -16 -102 -29
-161 -38 -169 -5 -6 -9 -18 -9 -28 0 -10 -4 -18 -10 -18 -5 0 -10 -4 -10 -10
0 -17 -34 -90 -42 -90 -5 0 -8 -5 -8 -12 0 -25 -68 -117 -140 -189 -67 -67
-158 -139 -175 -139 -10 0 -79 -33 -85 -41 -18 -24 -338 -51 -363 -31 -7 5
-36 13 -64 17 -29 4 -55 11 -59 16 -3 5 -14 9 -25 9 -10 0 -27 4 -37 9 -44 24
-87 41 -104 41 -10 0 -18 5 -18 10 0 6 -4 10 -10 10 -8 0 -96 56 -110 70 -3 3
-23 18 -45 35 -22 16 -43 34 -47 39 -4 6 -8 412 -8 901 l0 891 48 46 c126 124
223 194 352 255 82 38 128 53 168 53 17 0 34 5 37 10 4 6 58 10 130 10 72 0
126 -4 130 -10z"/>
<path d="M8736 9483 c-4 -4 -42 -13 -84 -20 -195 -30 -251 -50 -452 -159 -19
-10 -36 -22 -38 -26 -2 -5 -8 -8 -13 -8 -6 0 -15 -4 -22 -10 -7 -5 -52 -39
-102 -74 -49 -36 -110 -83 -135 -105 -25 -22 -63 -54 -85 -70 -22 -16 -76 -63
-119 -105 -44 -41 -83 -73 -88 -70 -4 3 -8 27 -8 53 0 26 -3 51 -7 55 -7 7
-23 103 -39 239 -4 32 -11 60 -15 63 -5 3 -9 25 -9 49 0 24 -4 47 -10 50 -5 3
-10 15 -10 26 0 19 -12 19 -550 19 l-550 0 -10 -26 c-6 -16 -10 -816 -10
-2214 0 -1980 2 -2190 16 -2204 14 -14 86 -16 677 -14 l662 3 3 1498 c1 983 5
1497 12 1497 5 0 43 31 82 69 40 37 102 92 138 120 36 28 72 57 80 64 27 22
224 115 277 131 69 21 251 21 313 1 119 -40 212 -117 252 -206 7 -16 16 -29
20 -29 4 0 10 -17 14 -37 4 -21 10 -42 14 -48 8 -10 11 -30 29 -205 5 -47 10
-704 10 -1460 1 -1056 4 -1379 13 -1388 9 -9 173 -12 675 -12 645 0 663 1 673
19 7 13 10 498 10 1497 l0 1476 64 62 c71 67 83 77 141 121 22 16 46 35 53 42
7 7 17 13 21 13 4 0 16 8 27 18 30 27 214 118 276 136 79 23 256 21 323 -3
104 -38 119 -46 174 -102 38 -37 54 -59 76 -106 11 -24 23 -43 28 -43 4 0 7
-15 7 -32 1 -18 7 -60 15 -93 8 -33 15 -81 15 -107 0 -26 5 -50 10 -53 7 -4
10 -488 10 -1420 l0 -1415 23 -5 c12 -3 317 -4 677 -3 l655 3 3 1509 c1 1000
-1 1513 -8 1520 -5 5 -10 39 -11 75 0 37 -5 93 -10 126 -6 33 -14 89 -19 125
-19 136 -22 150 -30 150 -4 0 -11 21 -15 46 -4 26 -11 55 -16 65 -5 11 -13 28
-19 39 -5 11 -10 25 -10 32 0 7 -11 35 -25 62 -14 27 -25 56 -25 64 0 18 -73
155 -106 199 -13 17 -24 35 -24 40 0 4 -14 24 -31 43 -16 19 -37 46 -46 60
-29 44 -203 195 -238 206 -11 4 -22 10 -25 13 -3 4 -21 15 -40 24 -19 10 -48
26 -65 36 -40 24 -143 59 -197 67 -24 4 -48 10 -53 15 -6 4 -46 11 -90 15 -44
4 -85 11 -92 16 -27 21 -514 -5 -568 -31 -11 -5 -33 -12 -50 -15 -45 -7 -113
-25 -133 -35 -9 -5 -44 -22 -77 -37 -33 -16 -66 -35 -73 -41 -7 -7 -34 -22
-60 -33 -25 -11 -49 -24 -52 -28 -3 -4 -48 -39 -100 -77 -52 -38 -100 -74
-107 -79 -6 -6 -37 -31 -68 -56 -59 -47 -178 -154 -251 -227 -48 -47 -43 -49
-89 40 -11 20 -23 37 -27 37 -5 0 -8 6 -8 14 0 8 -3 16 -7 18 -5 2 -26 30 -47
63 -42 65 -176 204 -241 251 -22 16 -46 35 -53 42 -7 6 -20 12 -28 12 -8 0
-14 5 -14 10 0 6 -6 10 -14 10 -8 0 -16 3 -18 8 -4 10 -125 68 -173 82 -22 7
-50 16 -63 21 -13 5 -35 9 -50 9 -16 0 -32 4 -38 10 -5 5 -50 14 -99 21 -108
14 -498 23 -509 12z"/>
<path d="M16110 9460 c-25 -4 -70 -13 -100 -19 -30 -6 -71 -13 -90 -16 -19 -4
-44 -10 -55 -14 -11 -4 -45 -16 -75 -26 -81 -26 -342 -149 -373 -175 -7 -6
-54 -38 -106 -71 -52 -34 -100 -66 -107 -72 -7 -7 -27 -23 -46 -37 -18 -14
-51 -42 -74 -62 -23 -21 -44 -38 -48 -38 -3 0 -6 15 -6 33 0 18 -4 37 -9 43
-5 5 -11 27 -14 49 -10 76 -28 160 -37 177 -6 10 -10 31 -10 47 0 17 -4 33
-10 36 -5 3 -10 17 -10 31 l0 24 -544 0 c-487 0 -544 -2 -550 -16 -8 -20 -8
-6018 0 -6038 6 -14 73 -16 665 -16 l658 0 12 21 c8 16 10 217 6 763 -3 407
-7 752 -10 766 -9 47 -16 134 -22 269 -6 149 -12 142 60 80 42 -37 118 -95
143 -108 11 -6 27 -17 34 -23 50 -46 342 -179 427 -194 20 -4 41 -10 46 -14
33 -24 304 -39 460 -26 104 9 272 42 289 57 6 5 22 9 37 9 15 0 29 4 31 8 2 5
37 21 78 36 92 34 130 52 197 94 29 17 57 32 63 32 5 0 10 5 10 10 0 6 6 10
13 10 22 1 251 179 293 229 14 17 53 59 87 94 34 35 74 82 89 103 16 21 48 64
73 94 24 30 44 63 45 73 0 9 4 17 9 17 5 0 11 10 15 23 3 12 13 31 23 42 10
11 27 38 38 60 11 22 23 42 28 43 4 2 7 10 7 17 0 7 7 26 15 42 23 43 85 183
85 192 0 8 23 61 41 93 5 10 9 29 9 42 0 14 5 28 10 31 6 3 10 16 10 27 0 12
7 46 16 77 9 31 20 72 24 91 5 19 14 55 20 80 17 71 43 242 56 380 5 63 6 516
0 565 -3 22 -10 81 -15 130 -18 158 -45 312 -61 350 -5 11 -16 56 -25 100 -9
44 -20 89 -25 100 -4 11 -15 45 -25 75 -9 30 -24 71 -32 90 -98 225 -161 345
-205 394 -10 11 -18 24 -18 29 0 9 -43 69 -74 102 -10 11 -30 36 -44 55 -35
48 -213 220 -227 220 -5 0 -45 32 -70 57 -7 6 -45 29 -86 51 -41 22 -91 49
-112 61 -21 11 -42 21 -48 21 -6 0 -34 11 -63 24 -29 13 -84 32 -122 40 -38 9
-85 21 -104 26 -19 5 -51 11 -70 14 -19 3 -46 8 -60 11 -40 11 -391 14 -440 5z
m-9 -1108 c113 -21 263 -118 331 -212 18 -25 35 -47 38 -50 6 -6 35 -58 61
-112 23 -44 59 -153 64 -193 1 -5 5 -22 9 -36 4 -14 8 -32 10 -40 2 -8 6 -25
9 -39 6 -25 15 -83 24 -155 2 -22 7 -139 10 -260 5 -214 -11 -453 -36 -540 -5
-16 -13 -48 -17 -70 -4 -22 -9 -47 -12 -55 -2 -8 -6 -30 -9 -48 -3 -18 -9 -35
-14 -38 -5 -3 -9 -13 -9 -23 0 -24 -75 -175 -114 -229 -35 -48 -135 -152 -181
-187 -39 -30 -124 -75 -141 -75 -8 0 -14 -3 -14 -8 0 -9 -102 -40 -165 -48
-155 -22 -307 7 -520 102 -33 14 -164 99 -175 113 -3 4 -17 14 -32 24 l-28 17
0 901 0 900 53 51 c181 175 388 294 547 313 30 4 57 8 59 10 7 8 198 -2 252
-13z"/>
<path d="M23329 9466 c-2 -2 -31 -6 -64 -10 -33 -3 -85 -11 -115 -17 -30 -6
-80 -13 -110 -16 -30 -3 -59 -9 -64 -14 -6 -5 -19 -9 -30 -9 -23 0 -186 -55
-251 -84 -181 -81 -353 -184 -420 -251 -16 -17 -45 -43 -64 -58 -19 -16 -50
-50 -70 -75 -19 -26 -42 -54 -51 -62 -20 -20 -71 -98 -88 -135 -14 -31 -25
-51 -42 -82 -5 -10 -19 -40 -30 -68 -12 -27 -25 -59 -30 -70 -4 -11 -13 -42
-20 -70 -6 -27 -17 -70 -23 -95 -13 -48 -17 -433 -5 -485 3 -16 9 -46 13 -65
17 -86 80 -228 153 -341 52 -82 193 -239 258 -289 135 -104 218 -160 289 -195
33 -17 62 -33 63 -37 2 -5 8 -8 12 -8 8 0 90 -37 235 -105 72 -34 130 -58 210
-90 39 -15 79 -31 90 -35 11 -5 31 -12 45 -16 14 -4 48 -17 77 -30 28 -13 54
-24 56 -24 3 0 22 -8 43 -17 22 -9 45 -18 53 -19 23 -4 139 -63 228 -116 57
-34 97 -67 134 -111 53 -64 58 -73 80 -144 17 -58 -2 -137 -52 -213 -45 -70
-86 -102 -159 -125 -30 -10 -64 -22 -75 -28 -11 -5 -103 -12 -205 -15 -177 -4
-266 3 -355 27 -48 14 -61 17 -100 26 -59 13 -95 28 -275 113 -66 31 -284 163
-288 174 -2 4 -10 8 -17 8 -7 0 -15 4 -17 8 -7 20 -114 87 -132 84 -19 -4 -55
-39 -56 -56 0 -5 -19 -34 -42 -64 -78 -100 -97 -127 -114 -157 -9 -16 -20 -32
-23 -35 -10 -8 -95 -122 -115 -155 -25 -42 -99 -139 -108 -143 -5 -2 -8 -8 -8
-13 0 -5 -29 -50 -65 -98 -36 -49 -65 -95 -65 -103 0 -16 39 -54 86 -84 16
-11 39 -28 52 -39 13 -11 51 -37 85 -57 34 -21 67 -41 73 -45 36 -27 263 -143
279 -143 8 0 15 -4 15 -10 0 -5 8 -10 18 -10 10 0 22 -4 28 -9 5 -4 32 -16 59
-26 28 -10 55 -22 60 -25 6 -4 51 -19 100 -34 50 -15 98 -31 107 -36 18 -10
82 -28 133 -37 17 -3 35 -9 40 -13 6 -4 38 -11 73 -15 34 -4 64 -10 67 -14 2
-4 27 -9 56 -10 28 -1 55 -3 59 -6 24 -15 480 -25 575 -12 28 3 79 9 115 13
36 3 74 8 85 11 11 3 54 11 95 19 121 24 130 26 130 34 0 4 22 10 50 14 27 4
52 11 55 16 3 6 17 10 30 10 13 0 27 5 30 10 3 6 15 10 27 10 22 0 297 134
333 163 5 4 46 35 90 68 44 33 99 78 122 100 51 49 153 164 153 173 0 4 9 17
20 29 12 12 27 33 34 47 7 14 26 50 42 80 16 30 31 57 34 60 3 3 11 23 19 45
8 22 18 51 24 65 23 54 37 118 43 193 4 43 11 80 16 83 12 8 10 381 -2 389 -5
3 -10 27 -10 52 0 53 -30 183 -42 183 -4 0 -8 7 -8 15 0 17 -81 178 -92 183
-5 2 -8 8 -8 14 0 8 -43 72 -60 88 -3 3 -17 21 -32 40 -46 62 -102 115 -183
175 -22 16 -42 32 -45 35 -23 24 -157 105 -260 157 -41 21 -77 40 -80 43 -8 9
-254 110 -268 110 -6 0 -12 5 -12 10 0 6 -8 10 -18 10 -10 0 -27 7 -38 15 -10
8 -29 15 -41 15 -13 0 -23 3 -23 8 0 8 -69 29 -127 39 -18 3 -33 9 -33 14 0 5
-9 9 -19 9 -11 0 -22 4 -26 9 -3 5 -18 12 -35 16 -16 3 -52 17 -80 31 -27 13
-55 24 -60 24 -19 0 -174 74 -194 92 -11 10 -38 27 -60 39 -57 29 -155 132
-162 169 -4 17 -11 33 -15 36 -12 7 -11 81 1 89 6 3 10 18 10 33 0 40 55 128
101 162 36 26 75 41 204 79 46 14 257 9 345 -7 74 -14 154 -35 160 -42 3 -3
32 -14 65 -25 33 -10 67 -22 75 -27 8 -4 35 -16 60 -27 25 -11 59 -28 75 -38
17 -9 53 -31 80 -47 81 -48 158 -98 188 -123 16 -13 36 -23 45 -23 16 1 72 70
72 90 0 6 3 10 8 10 4 1 25 26 47 56 55 75 148 198 155 204 3 3 30 39 60 80
30 41 65 86 77 100 13 14 23 30 23 37 0 7 4 13 8 13 5 0 17 16 28 35 10 19 22
35 26 35 6 0 66 83 91 127 12 19 -31 55 -148 128 -60 37 -117 74 -125 81 -8 7
-46 29 -85 49 -38 20 -93 49 -120 63 -28 15 -84 42 -125 60 -41 19 -92 42
-113 53 -22 10 -43 19 -49 19 -5 0 -24 6 -41 14 -43 19 -91 33 -157 47 -30 6
-75 15 -100 21 -49 10 -120 21 -245 37 -75 9 -457 15 -466 7z"/>
<path d="M28210 9460 c-25 -4 -70 -13 -100 -19 -30 -6 -71 -13 -90 -16 -19 -4
-44 -10 -55 -14 -21 -8 -127 -46 -182 -65 -18 -6 -33 -14 -33 -18 0 -5 -9 -8
-20 -8 -11 0 -20 -4 -20 -10 0 -5 -5 -10 -11 -10 -14 0 -85 -34 -134 -65 -22
-14 -47 -28 -55 -32 -8 -3 -29 -17 -46 -30 -17 -13 -36 -23 -42 -23 -7 0 -12
-4 -12 -10 0 -5 -6 -10 -12 -10 -7 0 -29 -14 -48 -30 -19 -16 -71 -57 -115
-92 -44 -34 -83 -67 -87 -72 -11 -16 -15 -6 -26 59 -6 33 -16 80 -22 105 -6
25 -15 70 -21 100 -5 30 -14 69 -18 85 -5 17 -12 42 -15 58 l-6 27 -544 0
c-487 0 -544 -2 -550 -16 -3 -9 -6 -1369 -6 -3023 0 -2325 3 -3010 12 -3019 9
-9 170 -12 665 -12 650 0 652 0 663 21 12 22 9 1442 -3 1487 -3 13 -7 71 -7
130 -1 59 -6 123 -11 142 -6 19 -9 67 -7 105 l3 70 31 -30 c17 -16 48 -43 70
-59 21 -17 41 -33 44 -36 16 -18 207 -133 273 -163 282 -132 521 -165 852
-121 56 7 167 34 187 45 10 5 25 9 33 9 9 0 35 9 57 20 23 11 46 20 51 20 9 0
50 17 117 49 19 9 58 31 87 49 29 17 57 32 63 32 5 0 10 5 10 10 0 6 4 10 10
10 10 0 93 56 146 100 97 78 123 101 184 165 132 135 230 269 335 455 11 19
23 36 28 38 4 2 7 9 7 16 0 7 16 43 35 82 19 38 35 72 35 76 0 4 13 35 29 70
35 76 71 183 71 213 0 11 4 25 9 31 12 13 37 107 67 259 41 202 49 309 48 635
0 269 -6 387 -23 495 -6 33 -15 94 -21 135 -5 41 -15 85 -20 98 -6 13 -10 34
-10 47 0 13 -4 26 -9 29 -5 3 -12 27 -16 52 -4 26 -10 54 -15 63 -4 9 -20 57
-35 106 -15 50 -38 113 -51 140 -13 28 -24 56 -24 63 0 6 -4 12 -10 12 -5 0
-10 9 -10 20 0 11 -4 20 -10 20 -5 0 -10 5 -10 12 0 39 -165 307 -234 381 -20
20 -36 40 -36 44 0 10 -178 183 -188 183 -7 0 -39 25 -88 67 -26 23 -45 34
-119 74 -33 17 -64 35 -70 40 -5 5 -17 9 -27 9 -10 0 -18 4 -18 9 0 5 -14 13
-32 16 -17 4 -46 15 -63 25 -17 10 -56 23 -86 30 -30 7 -72 17 -94 22 -22 5
-62 13 -90 18 -27 4 -61 11 -75 15 -38 10 -389 15 -440 5z m-60 -1101 c66 -9
106 -22 179 -57 51 -25 95 -52 98 -59 3 -7 9 -13 15 -13 9 0 49 -40 91 -90 26
-30 78 -117 101 -165 10 -22 21 -47 25 -55 4 -8 16 -49 25 -90 10 -41 22 -82
26 -90 4 -9 11 -45 16 -80 4 -36 8 -67 9 -70 34 -124 37 -642 5 -755 -5 -16
-11 -57 -15 -90 -3 -33 -10 -73 -15 -90 -5 -16 -17 -61 -26 -100 -10 -38 -20
-77 -24 -85 -4 -8 -20 -42 -34 -75 -31 -68 -106 -185 -118 -185 -4 0 -8 -5 -8
-11 0 -11 -19 -30 -118 -121 -23 -21 -48 -38 -56 -38 -8 0 -16 -3 -18 -7 -11
-25 -175 -87 -258 -98 -25 -3 -65 -8 -88 -12 -83 -11 -342 59 -464 127 -26 14
-84 52 -128 84 l-80 59 0 898 0 897 48 48 c109 110 237 202 362 261 79 38 120
50 184 58 27 3 51 7 53 8 9 9 136 7 213 -4z"/>
<path d="M17163 2840 c-65 -13 -159 -54 -207 -91 -103 -79 -151 -184 -150
-329 1 -104 27 -178 88 -253 61 -75 123 -119 281 -197 239 -118 275 -150 275
-247 0 -44 -5 -58 -30 -87 -41 -46 -86 -60 -195 -58 -103 1 -202 24 -334 77
-49 19 -91 35 -95 35 -3 0 -6 -67 -6 -149 l0 -148 93 -31 c130 -43 219 -55
372 -49 104 4 146 10 212 31 97 31 187 93 234 162 94 137 91 354 -6 486 -47
64 -150 134 -330 225 -82 41 -165 86 -183 100 -89 67 -80 195 18 246 29 15 53
18 140 14 89 -3 122 -9 214 -41 59 -21 109 -36 110 -34 2 2 24 56 51 121 40
98 46 120 34 128 -30 19 -180 68 -252 83 -81 17 -262 20 -334 6z"/>
<path d="M29540 2835 c-279 -56 -471 -223 -549 -477 -32 -105 -45 -258 -32
-384 23 -229 79 -364 200 -485 82 -82 152 -122 271 -156 53 -15 100 -18 260
-17 201 0 314 16 453 62 l52 17 3 388 2 387 -305 0 -306 0 3 -132 3 -133 143
-3 142 -3 0 -149 c0 -103 -4 -151 -12 -156 -20 -13 -260 -17 -303 -5 -114 31
-206 124 -246 251 -27 83 -37 282 -19 372 32 169 139 297 288 347 117 40 313
23 453 -37 l46 -20 51 126 c29 69 49 129 45 133 -17 15 -129 50 -222 69 -116
23 -317 26 -421 5z"/>
<path d="M3138 2088 l-266 -753 171 -3 c102 -1 173 1 176 7 3 6 28 84 56 175
l50 166 275 0 275 0 50 -166 c28 -91 53 -169 56 -175 3 -6 74 -8 176 -7 l171
3 -266 752 -267 753 -196 0 -196 0 -265 -752z m561 181 c50 -163 91 -299 91
-303 0 -3 -86 -6 -191 -6 -178 0 -191 1 -184 18 3 9 44 143 91 297 93 308 95
314 99 300 2 -5 44 -143 94 -306z"/>
<path d="M9782 2103 c-143 -406 -264 -746 -267 -755 -7 -17 5 -18 167 -18
l175 0 54 175 53 175 276 0 276 0 49 -165 c27 -91 52 -170 55 -176 4 -6 73 -8
177 -7 l170 3 -258 730 c-142 402 -263 740 -269 753 -9 22 -12 22 -203 22
l-194 0 -261 -737z m557 165 c50 -163 91 -299 91 -302 0 -3 -86 -6 -191 -6
-149 0 -190 3 -186 13 9 23 156 512 169 559 7 27 15 45 19 40 3 -4 47 -141 98
-304z"/>
<path d="M25762 2813 c-14 -35 -522 -1475 -522 -1480 0 -1 78 -3 173 -3 l173
0 28 93 c15 50 39 129 53 175 l25 82 276 -2 276 -3 52 -170 52 -170 175 -3
174 -2 -98 277 c-54 153 -174 492 -267 753 l-169 475 -195 3 -195 2 -11 -27z
m304 -543 c48 -157 89 -291 92 -297 3 -10 -39 -13 -188 -13 -178 0 -192 1
-187 18 2 9 43 145 91 300 47 156 86 291 87 300 1 28 12 -6 105 -308z"/>
<path d="M1450 2080 l0 -750 160 0 160 0 0 268 1 267 59 43 c33 23 64 42 69
42 5 0 96 -139 203 -310 l193 -310 183 0 c144 0 182 3 176 13 -4 6 -120 190
-257 407 -138 217 -252 401 -254 410 -2 8 65 100 148 205 83 105 200 252 260
328 l109 137 -180 0 -180 0 -200 -250 c-110 -137 -228 -289 -262 -337 l-63
-87 -3 337 -2 337 -160 0 -160 0 0 -750z"/>
<path d="M4730 2080 l0 -750 330 0 c374 0 437 7 556 65 91 44 173 129 203 210
56 148 26 340 -66 427 -24 23 -92 59 -158 83 -16 6 -12 10 25 21 138 41 218
223 180 405 -26 119 -105 201 -238 243 -122 38 -212 46 -533 46 l-299 0 0
-750z m577 481 c126 -19 167 -57 168 -158 0 -70 -19 -104 -76 -138 -29 -17
-56 -20 -191 -24 l-158 -3 0 166 0 166 98 0 c53 0 125 -4 159 -9z m107 -611
c67 -34 89 -66 94 -139 5 -75 -10 -122 -53 -160 -49 -43 -91 -51 -257 -51
l-148 0 0 191 0 191 158 -3 c144 -4 161 -6 206 -29z"/>
<path d="M6350 2300 c0 -352 4 -547 11 -582 32 -148 127 -272 263 -338 115
-57 209 -74 371 -67 73 3 156 12 190 21 154 43 283 143 344 267 56 114 60 168
61 727 l0 502 -165 0 -164 0 -3 -527 -3 -528 -24 -53 c-44 -98 -127 -142 -266
-142 -137 0 -219 43 -264 139 l-26 56 -3 528 -3 527 -159 0 -160 0 0 -530z"/>
<path d="M8160 2080 l0 -750 165 0 165 0 0 264 0 263 143 6 c159 6 229 21 333
72 175 86 267 283 236 506 -23 158 -101 267 -234 329 -112 51 -185 60 -513 60
l-295 0 0 -750z m611 462 c75 -33 108 -90 109 -190 0 -90 -37 -154 -115 -195
-32 -17 -62 -22 -157 -25 l-118 -4 0 222 0 223 119 -6 c87 -4 130 -10 162 -25z"/>
<path d="M11220 2695 l0 -135 205 0 205 0 0 -615 0 -615 160 0 160 0 0 615 0
615 205 0 205 0 0 135 0 135 -570 0 -570 0 0 -135z"/>
<path d="M12800 2080 l0 -750 435 0 435 0 0 135 0 135 -275 0 -275 0 0 190 0
190 255 0 255 0 0 130 0 130 -255 0 -255 0 0 165 0 165 275 0 275 0 0 130 0
130 -435 0 -435 0 0 -750z"/>
<path d="M14190 2080 l0 -750 146 0 146 0 -5 543 c-3 298 -8 553 -12 567 -6
23 -5 24 8 7 8 -9 157 -265 332 -567 l318 -550 203 0 204 0 0 750 0 750 -145
0 -145 0 1 -412 c0 -227 4 -478 8 -558 4 -80 7 -146 6 -148 -1 -1 -149 248
-327 555 l-326 558 -206 3 -206 2 0 -750z"/>
<path d="M18243 2288 c4 -591 3 -586 63 -704 33 -66 119 -154 188 -193 91 -52
178 -73 322 -78 163 -7 264 11 382 68 98 47 172 117 219 204 62 118 63 128 63
714 l0 531 -160 0 -160 0 0 -498 c0 -413 -3 -508 -15 -557 -34 -131 -107 -186
-255 -193 -118 -6 -190 15 -246 72 -74 73 -74 77 -74 663 l0 513 -166 0 -165
0 4 -542z"/>
<path d="M20060 2080 l0 -750 145 0 145 0 0 388 c0 213 -5 474 -10 581 -6 107
-9 195 -7 197 2 2 84 -258 183 -579 l180 -582 149 -2 150 -3 193 586 c107 322
195 584 196 582 2 -2 -1 -77 -5 -168 -4 -91 -8 -353 -8 -582 l-1 -418 150 0
150 0 0 750 0 750 -217 0 -218 0 -188 -571 c-104 -314 -190 -569 -193 -567 -4
5 -354 1125 -354 1134 0 2 -99 4 -220 4 l-220 0 0 -750z"/>
<path d="M22260 2080 l0 -750 435 0 435 0 0 135 0 135 -275 0 -275 0 0 190 0
190 255 0 255 0 0 130 0 130 -255 0 -255 0 0 165 0 165 275 0 275 0 0 130 0
130 -435 0 -435 0 0 -750z"/>
<path d="M23650 2080 l0 -752 318 5 c361 5 414 13 572 89 114 55 230 168 283
278 63 127 80 212 80 390 0 179 -17 258 -79 381 -52 105 -172 223 -275 273
-154 73 -194 79 -566 84 l-333 4 0 -752z m585 480 c235 -34 347 -208 332 -515
-11 -236 -98 -370 -276 -426 -48 -14 -92 -19 -187 -19 l-124 0 0 485 0 485 93
0 c50 0 123 -5 162 -10z"/>
<path d="M27090 2080 l0 -750 145 0 145 0 -1 468 c-1 257 -4 510 -8 564 -3 53
-3 95 0 93 3 -2 151 -256 329 -564 l324 -561 208 0 208 0 0 750 0 750 -150 0
-150 0 0 -387 c1 -214 5 -464 10 -558 4 -93 7 -171 6 -172 -1 -1 -148 248
-327 555 l-325 557 -207 3 -207 2 0 -750z"/>
</g>
</svg>
